<svg version="1.1" viewBox="0.0 0.0 600.0 371.0" fill="none" stroke="none" stroke-linecap="square" stroke-miterlimit="10" width="600" height="371" xmlns:xlink="http://www.w3.org/1999/xlink" xmlns="http://www.w3.org/2000/svg"><path fill="#ffffff" d="M0 0L600.0 0L600.0 371.0L0 371.0L0 0Z" fill-rule="nonzero"/><path stroke="#cccccc" stroke-width="1.0" stroke-linecap="butt" d="M134.5 53.5L134.5 298.5" fill-rule="nonzero"/><path stroke="#cccccc" stroke-width="1.0" stroke-linecap="butt" d="M246.5 53.5L246.5 298.5" fill-rule="nonzero"/><path stroke="#cccccc" stroke-width="1.0" stroke-linecap="butt" d="M357.5 53.5L357.5 298.5" fill-rule="nonzero"/><path stroke="#cccccc" stroke-width="1.0" stroke-linecap="butt" d="M469.5 53.5L469.5 298.5" fill-rule="nonzero"/><path stroke="#cccccc" stroke-width="1.0" stroke-linecap="butt" d="M581.5 53.5L581.5 298.5" fill-rule="nonzero"/><path stroke="#333333" stroke-width="1.0" stroke-linecap="butt" d="M78.5 298.5L581.5 298.5" fill-rule="nonzero"/><path stroke="#cccccc" stroke-width="1.0" stroke-linecap="butt" d="M78.5 237.5L581.5 237.5" fill-rule="nonzero"/><path stroke="#cccccc" stroke-width="1.0" stroke-linecap="butt" d="M78.5 175.5L581.5 175.5" fill-rule="nonzero"/><path stroke="#cccccc" stroke-width="1.0" stroke-linecap="butt" d="M78.5 114.5L581.5 114.5" fill-rule="nonzero"/><path stroke="#cccccc" stroke-width="1.0" stroke-linecap="butt" d="M78.5 53.5L581.5 53.5" fill-rule="nonzero"/><clipPath id="id_0"><path d="M78.55 53.416668L581.45 53.416668L581.45 298.45L78.55 298.45L78.55 53.416668Z" clip-rule="nonzero"/></clipPath><path stroke="#4285f4" stroke-width="2.0" stroke-linecap="butt" clip-path="url(#id_0)" d="M78.55 213.9135L134.42778 240.25458L190.30556 251.58737L246.18333 256.18176L302.0611 258.9384L357.9389 259.85724L413.81668 261.3887L469.69446 262.3076L525.5722 262.00128L581.45 263.83905" fill-rule="nonzero"/><path stroke="#db4437" stroke-width="2.0" stroke-linecap="butt" clip-path="url(#id_0)" d="M78.55 65.05575L134.42778 150.51112L190.30556 177.4648L246.18333 189.41017L302.0611 194.92342L357.9389 197.68004L413.81668 198.59892L469.69446 200.13037L525.5722 205.94992L581.45 208.70654" fill-rule="nonzero"/><path fill="#000000" fill-opacity="0.0" clip-path="url(#id_0)" d="M81.55 213.9135C81.55 215.57036 80.206856 216.9135 78.55 216.9135C76.89314 216.9135 75.55 215.57036 75.55 213.9135C75.55 212.25665 76.89314 210.9135 78.55 210.9135C80.206856 210.9135 81.55 212.25665 81.55 213.9135Z" fill-rule="nonzero"/><path fill="#000000" fill-opacity="0.0" clip-path="url(#id_0)" d="M137.42778 240.25458C137.42778 241.91144 136.08463 243.25458 134.42778 243.25458C132.77092 243.25458 131.42778 241.91144 131.42778 240.25458C131.42778 238.59773 132.77092 237.25458 134.42778 237.25458C136.08463 237.25458 137.42778 238.59773 137.42778 240.25458Z" fill-rule="nonzero"/><path fill="#000000" fill-opacity="0.0" clip-path="url(#id_0)" d="M193.30556 251.58737C193.30556 253.24423 191.9624 254.58737 190.30556 254.58737C188.6487 254.58737 187.30556 253.24423 187.30556 251.58737C187.30556 249.93053 188.6487 248.58737 190.30556 248.58737C191.9624 248.58737 193.30556 249.93053 193.30556 251.58737Z" fill-rule="nonzero"/><path fill="#000000" fill-opacity="0.0" clip-path="url(#id_0)" d="M249.18333 256.18176C249.18333 257.8386 247.8402 259.18176 246.18333 259.18176C244.52647 259.18176 243.18333 257.8386 243.18333 256.18176C243.18333 254.5249 244.52647 253.18175 246.18333 253.18175C247.8402 253.18175 249.18333 254.5249 249.18333 256.18176Z" fill-rule="nonzero"/><path fill="#000000" fill-opacity="0.0" clip-path="url(#id_0)" d="M305.0611 258.9384C305.0611 260.5952 303.71796 261.9384 302.0611 261.9384C300.40427 261.9384 299.0611 260.5952 299.0611 258.9384C299.0611 257.28152 300.40427 255.93837 302.0611 255.93837C303.71796 255.93837 305.0611 257.28152 305.0611 258.9384Z" fill-rule="nonzero"/><path fill="#000000" fill-opacity="0.0" clip-path="url(#id_0)" d="M360.9389 259.85724C360.9389 261.5141 359.59573 262.85724 357.9389 262.85724C356.28204 262.85724 354.9389 261.5141 354.9389 259.85724C354.9389 258.2004 356.28204 256.85724 357.9389 256.85724C359.59573 256.85724 360.9389 258.2004 360.9389 259.85724Z" fill-rule="nonzero"/><path fill="#000000" fill-opacity="0.0" clip-path="url(#id_0)" d="M416.81668 261.3887C416.81668 263.04556 415.4735 264.3887 413.81668 264.3887C412.15982 264.3887 410.81668 263.04556 410.81668 261.3887C410.81668 259.73184 412.15982 258.3887 413.81668 258.3887C415.4735 258.3887 416.81668 259.73184 416.81668 261.3887Z" fill-rule="nonzero"/><path fill="#000000" fill-opacity="0.0" clip-path="url(#id_0)" d="M472.69446 262.3076C472.69446 263.96445 471.3513 265.3076 469.69446 265.3076C468.0376 265.3076 466.69446 263.96445 466.69446 262.3076C466.69446 260.65073 468.0376 259.3076 469.69446 259.3076C471.3513 259.3076 472.69446 260.65073 472.69446 262.3076Z" fill-rule="nonzero"/><path fill="#000000" fill-opacity="0.0" clip-path="url(#id_0)" d="M528.5722 262.00128C528.5722 263.65814 527.22906 265.00128 525.5722 265.00128C523.91534 265.00128 522.5722 263.65814 522.5722 262.00128C522.5722 260.34445 523.91534 259.00128 525.5722 259.00128C527.22906 259.00128 528.5722 260.34445 528.5722 262.00128Z" fill-rule="nonzero"/><path fill="#000000" fill-opacity="0.0" clip-path="url(#id_0)" d="M584.45 263.83905C584.45 265.4959 583.1069 266.83905 581.45 266.83905C579.79315 266.83905 578.45 265.4959 578.45 263.83905C578.45 262.1822 579.79315 260.83905 581.45 260.83905C583.1069 260.83905 584.45 262.1822 584.45 263.83905Z" fill-rule="nonzero"/><path fill="#000000" fill-opacity="0.0" clip-path="url(#id_0)" d="M81.55 65.05575C81.55 66.7126 80.206856 68.05575 78.55 68.05575C76.89314 68.05575 75.55 66.7126 75.55 65.05575C75.55 63.398895 76.89314 62.05575 78.55 62.05575C80.206856 62.05575 81.55 63.398895 81.55 65.05575Z" fill-rule="nonzero"/><path fill="#000000" fill-opacity="0.0" clip-path="url(#id_0)" d="M137.42778 150.51112C137.42778 152.16798 136.08463 153.51112 134.42778 153.51112C132.77092 153.51112 131.42778 152.16798 131.42778 150.51112C131.42778 148.85426 132.77092 147.51112 134.42778 147.51112C136.08463 147.51112 137.42778 148.85426 137.42778 150.51112Z" fill-rule="nonzero"/><path fill="#000000" fill-opacity="0.0" clip-path="url(#id_0)" d="M193.30556 177.4648C193.30556 179.12164 191.9624 180.4648 190.30556 180.4648C188.6487 180.4648 187.30556 179.12164 187.30556 177.4648C187.30556 175.80794 188.6487 174.4648 190.30556 174.4648C191.9624 174.4648 193.30556 175.80794 193.30556 177.4648Z" fill-rule="nonzero"/><path fill="#000000" fill-opacity="0.0" clip-path="url(#id_0)" d="M249.18333 189.41017C249.18333 191.06702 247.8402 192.41017 246.18333 192.41017C244.52647 192.41017 243.18333 191.06702 243.18333 189.41017C243.18333 187.75331 244.52647 186.41017 246.18333 186.41017C247.8402 186.41017 249.18333 187.75331 249.18333 189.41017Z" fill-rule="nonzero"/><path fill="#000000" fill-opacity="0.0" clip-path="url(#id_0)" d="M305.0611 194.92342C305.0611 196.58028 303.71796 197.92342 302.0611 197.92342C300.40427 197.92342 299.0611 196.58028 299.0611 194.92342C299.0611 193.26656 300.40427 191.92342 302.0611 191.92342C303.71796 191.92342 305.0611 193.26656 305.0611 194.92342Z" fill-rule="nonzero"/><path fill="#000000" fill-opacity="0.0" clip-path="url(#id_0)" d="M360.9389 197.68004C360.9389 199.3369 359.59573 200.68004 357.9389 200.68004C356.28204 200.68004 354.9389 199.3369 354.9389 197.68004C354.9389 196.0232 356.28204 194.68004 357.9389 194.68004C359.59573 194.68004 360.9389 196.0232 360.9389 197.68004Z" fill-rule="nonzero"/><path fill="#000000" fill-opacity="0.0" clip-path="url(#id_0)" d="M416.81668 198.59892C416.81668 200.25577 415.4735 201.59892 413.81668 201.59892C412.15982 201.59892 410.81668 200.25577 410.81668 198.59892C410.81668 196.94206 412.15982 195.59892 413.81668 195.59892C415.4735 195.59892 416.81668 196.94206 416.81668 198.59892Z" fill-rule="nonzero"/><path fill="#000000" fill-opacity="0.0" clip-path="url(#id_0)" d="M472.69446 200.13037C472.69446 201.78723 471.3513 203.13037 469.69446 203.13037C468.0376 203.13037 466.69446 201.78723 466.69446 200.13037C466.69446 198.47353 468.0376 197.13037 469.69446 197.13037C471.3513 197.13037 472.69446 198.47353 472.69446 200.13037Z" fill-rule="nonzero"/><path fill="#000000" fill-opacity="0.0" clip-path="url(#id_0)" d="M528.5722 205.94992C528.5722 207.60677 527.22906 208.94992 525.5722 208.94992C523.91534 208.94992 522.5722 207.60677 522.5722 205.94992C522.5722 204.29306 523.91534 202.94992 525.5722 202.94992C527.22906 202.94992 528.5722 204.29306 528.5722 205.94992Z" fill-rule="nonzero"/><path fill="#000000" fill-opacity="0.0" clip-path="url(#id_0)" d="M584.45 208.70654C584.45 210.3634 583.1069 211.70654 581.45 211.70654C579.79315 211.70654 578.45 210.3634 578.45 208.70654C578.45 207.04968 579.79315 205.70654 581.45 205.70654C583.1069 205.70654 584.45 207.04968 584.45 208.70654Z" fill-rule="nonzero"/><path fill="#424242" d="M321.76562 346.7469Q321.60938 348.09064 320.76562 348.84064Q319.92188 349.575 318.53125 349.575Q317.01562 349.575 316.10938 348.4969Q315.20312 347.40314 315.20312 345.575L315.20312 344.7625Q315.20312 343.575 315.625 342.66876Q316.04688 341.7625 316.82812 341.27814Q317.60938 340.79376 318.625 340.79376Q319.98438 340.79376 320.79688 341.5594Q321.625 342.325 321.76562 343.65314L320.64062 343.65314Q320.48438 342.6375 320.0 342.1844Q319.51562 341.73126 318.625 341.73126Q317.54688 341.73126 316.9375 342.52814Q316.32812 343.325 316.32812 344.79376L316.32812 345.6219Q316.32812 347.0125 316.90625 347.84064Q317.48438 348.65314 318.53125 348.65314Q319.46875 348.65314 319.96875 348.23126Q320.46875 347.79376 320.64062 346.7469L321.76562 346.7469ZM323.03125 346.21564Q323.03125 345.29376 323.39062 344.54376Q323.76562 343.79376 324.42188 343.40314Q325.07812 342.9969 325.90625 342.9969Q327.20312 342.9969 328.0 343.8875Q328.8125 344.77814 328.8125 346.27814L328.8125 346.35626Q328.8125 347.27814 328.45312 348.0125Q328.09375 348.7469 327.4375 349.16876Q326.78125 349.575 325.92188 349.575Q324.64062 349.575 323.82812 348.6844Q323.03125 347.77814 323.03125 346.29376L323.03125 346.21564ZM324.125 346.35626Q324.125 347.40314 324.60938 348.04376Q325.10938 348.6844 325.92188 348.6844Q326.75 348.6844 327.23438 348.04376Q327.71875 347.3875 327.71875 346.21564Q327.71875 345.1844 327.21875 344.54376Q326.73438 343.8875 325.90625 343.8875Q325.10938 343.8875 324.60938 344.52814Q324.125 345.15314 324.125 346.35626ZM333.39062 344.075Q333.14062 344.04376 332.85938 344.04376Q331.78125 344.04376 331.40625 344.95L331.40625 349.45L330.32812 349.45L330.32812 343.10626L331.375 343.10626L331.39062 343.84064Q331.92188 342.9969 332.90625 342.9969Q333.21875 342.9969 333.39062 343.075L333.39062 344.075ZM336.95312 349.575Q335.65625 349.575 334.84375 348.73126Q334.04688 347.8719 334.04688 346.45L334.04688 346.2625Q334.04688 345.3094 334.40625 344.575Q334.76562 343.825 335.40625 343.41876Q336.0625 342.9969 336.8125 342.9969Q338.04688 342.9969 338.73438 343.8094Q339.42188 344.6219 339.42188 346.1375L339.42188 346.59064L335.125 346.59064Q335.15625 347.52814 335.67188 348.10626Q336.20312 348.6844 337.01562 348.6844Q337.57812 348.6844 337.96875 348.45Q338.375 348.21564 338.6875 347.825L339.34375 348.34064Q338.54688 349.575 336.95312 349.575ZM336.8125 343.8875Q336.15625 343.8875 335.70312 344.3719Q335.26562 344.84064 335.17188 345.7L338.34375 345.7L338.34375 345.6219Q338.29688 344.79376 337.89062 344.34064Q337.5 343.8875 336.8125 343.8875ZM344.01562 347.7625Q344.01562 347.325 343.67188 347.09064Q343.34375 346.84064 342.51562 346.66876Q341.70312 346.4969 341.21875 346.2469Q340.73438 345.9969 340.5 345.66876Q340.28125 345.325 340.28125 344.85626Q340.28125 344.075 340.9375 343.54376Q341.59375 342.9969 342.625 342.9969Q343.70312 342.9969 344.35938 343.5594Q345.03125 344.10626 345.03125 344.96564L343.95312 344.96564Q343.95312 344.52814 343.5625 344.21564Q343.1875 343.8875 342.625 343.8875Q342.03125 343.8875 341.6875 344.15314Q341.35938 344.40314 341.35938 344.8094Q341.35938 345.2 341.67188 345.40314Q341.98438 345.60626 342.79688 345.79376Q343.60938 345.96564 344.10938 346.21564Q344.60938 346.46564 344.84375 346.825Q345.09375 347.1844 345.09375 347.6844Q345.09375 348.54376 344.40625 349.0594Q343.73438 349.575 342.65625 349.575Q341.89062 349.575 341.29688 349.3094Q340.71875 349.02814 340.39062 348.54376Q340.0625 348.0594 340.0625 347.4969L341.14062 347.4969Q341.17188 348.04376 341.57812 348.3719Q341.98438 348.6844 342.65625 348.6844Q343.26562 348.6844 343.64062 348.4344Q344.01562 348.1844 344.01562 347.7625Z" fill-rule="nonzero"/><path fill="#424242" d="M22.940638 196.29271L22.940638 199.04271L30.550013 199.04271L30.550013 200.15208L22.940638 200.15208L22.940638 202.90208L22.018763 202.90208L22.018763 196.29271L22.940638 196.29271ZM30.550013 194.18333L30.550013 195.26146L24.206263 195.26146L24.206263 194.18333L30.550013 194.18333ZM22.534388 195.35521Q22.268763 195.35521 22.081263 195.19896Q21.893763 195.02708 21.893763 194.71458Q21.893763 194.40208 22.081263 194.24583Q22.268763 194.07396 22.534388 194.07396Q22.784388 194.07396 22.971888 194.24583Q23.143763 194.40208 23.143763 194.71458Q23.143763 195.02708 22.971888 195.19896Q22.784388 195.35521 22.534388 195.35521ZM24.206263 191.33958L24.909388 191.30833Q24.096888 190.62083 24.096888 189.43333Q24.096888 188.10521 25.112513 187.62083Q24.659388 187.30833 24.378138 186.80833Q24.096888 186.29271 24.096888 185.60521Q24.096888 183.51146 26.300013 183.48021L30.550013 183.48021L30.550013 184.55833L26.362513 184.55833Q25.690638 184.55833 25.362513 184.87083Q25.018763 185.18333 25.018763 185.91771Q25.018763 186.52708 25.378138 186.93333Q25.737513 187.32396 26.346888 187.38646L30.550013 187.38646L30.550013 188.46458L26.393763 188.46458Q25.018763 188.46458 25.018763 189.82396Q25.018763 190.88646 25.925013 191.27708L30.550013 191.27708L30.550013 192.37083L24.206263 192.37083L24.206263 191.33958ZM30.675013 178.73021Q30.675013 180.02708 29.831263 180.83958Q28.971888 181.63646 27.550013 181.63646L27.362513 181.63646Q26.409388 181.63646 25.675013 181.27708Q24.925013 180.91771 24.518763 180.27708Q24.096888 179.62083 24.096888 178.87083Q24.096888 177.63646 24.909388 176.94896Q25.721888 176.26146 27.237513 176.26146L27.690638 176.26146L27.690638 180.55833Q28.628138 180.52708 29.206263 180.01146Q29.784388 179.48021 29.784388 178.66771Q29.784388 178.10521 29.550013 177.71458Q29.315638 177.30833 28.925013 176.99583L29.440638 176.33958Q30.675013 177.13646 30.675013 178.73021ZM24.987513 178.87083Q24.987513 179.52708 25.471888 179.98021Q25.940638 180.41771 26.800013 180.51146L26.800013 177.33958L26.721888 177.33958Q25.893763 177.38646 25.440638 177.79271Q24.987513 178.18333 24.987513 178.87083ZM27.081263 175.40208Q25.768763 175.40208 24.550013 175.05833Q23.331263 174.69896 22.331263 173.99583Q21.331263 173.29271 20.925013 172.52708L21.643763 172.30833Q22.300013 173.16771 23.643763 173.71458Q24.987513 174.26146 26.659388 174.30833L27.159388 174.32396Q29.425013 174.32396 31.081263 173.49583Q32.08126 172.99583 32.64376 172.30833L33.30001 172.52708Q32.878136 173.30833 31.846888 174.02708Q29.862513 175.40208 27.081263 175.40208ZM28.862513 167.66771Q28.425013 167.66771 28.190638 168.01146Q27.940638 168.33958 27.768763 169.16771Q27.596888 169.98021 27.346888 170.46458Q27.096888 170.94896 26.768763 171.18333Q26.425013 171.40208 25.956263 171.40208Q25.175013 171.40208 24.643763 170.74583Q24.096888 170.08958 24.096888 169.05833Q24.096888 167.98021 24.659388 167.32396Q25.206263 166.65208 26.065638 166.65208L26.065638 167.73021Q25.628138 167.73021 25.315638 168.12083Q24.987513 168.49583 24.987513 169.05833Q24.987513 169.65208 25.253138 169.99583Q25.503138 170.32396 25.909388 170.32396Q26.300013 170.32396 26.503138 170.01146Q26.706263 169.69896 26.893763 168.88646Q27.065638 168.07396 27.315638 167.57396Q27.565638 167.07396 27.925013 166.83958Q28.284388 166.58958 28.784388 166.58958Q29.643763 166.58958 30.159388 167.27708Q30.675013 167.94896 30.675013 169.02708Q30.675013 169.79271 30.409388 170.38646Q30.128138 170.96458 29.643763 171.29271Q29.159388 171.62083 28.596888 171.62083L28.596888 170.54271Q29.143763 170.51146 29.471888 170.10521Q29.784388 169.69896 29.784388 169.02708Q29.784388 168.41771 29.534388 168.04271Q29.284388 167.66771 28.862513 167.66771ZM27.143763 162.85521Q28.456263 162.85521 29.659388 163.19896Q30.846888 163.54271 31.862513 164.26146Q32.878136 164.96458 33.30001 165.73021L32.64376 165.96458Q31.956263 165.05833 30.503138 164.51146Q29.034388 163.96458 27.268763 163.94896L27.081263 163.94896Q25.846888 163.94896 24.784388 164.21458Q23.721888 164.46458 22.893763 164.93333Q22.050013 165.38646 21.581263 165.96458L20.925013 165.73021Q21.346888 164.96458 22.346888 164.26146Q23.346888 163.55833 24.565638 163.21458Q25.768763 162.85521 27.143763 162.85521Z" fill-rule="nonzero"/><path fill="#757575" d="M71.6125 299.3094Q71.6125 301.21564 70.95625 302.15314Q70.31563 303.075 68.925 303.075Q67.56563 303.075 66.90938 302.16876Q66.25313 301.2625 66.22188 299.45L66.22188 298.0125Q66.22188 296.1219 66.8625 295.21564Q67.51875 294.29376 68.90938 294.29376Q70.28438 294.29376 70.94063 295.1844Q71.59688 296.0594 71.6125 297.90314L71.6125 299.3094ZM70.51875 297.825Q70.51875 296.45 70.12813 295.825Q69.75313 295.1844 68.90938 295.1844Q68.08125 295.1844 67.69063 295.825Q67.31563 296.45 67.31563 297.7469L67.31563 299.48126Q67.31563 300.85626 67.70625 301.52814Q68.1125 302.1844 68.925 302.1844Q69.72188 302.1844 70.1125 301.5594Q70.50313 300.9344 70.51875 299.60626L70.51875 297.825Z" fill-rule="nonzero"/><path fill="#757575" d="M57.846874 241.69167L52.253124 241.69167L52.253124 240.91042L55.20625 237.62917Q55.8625 236.87917 56.1125 236.42604Q56.3625 235.95729 56.3625 235.45729Q56.3625 234.78542 55.95625 234.36354Q55.565624 233.92604 54.878124 233.92604Q54.08125 233.92604 53.628124 234.39479Q53.175 234.84792 53.175 235.67604L52.096874 235.67604Q52.096874 234.48854 52.846874 233.76979Q53.6125 233.03542 54.878124 233.03542Q56.08125 233.03542 56.76875 233.66042Q57.45625 234.28542 57.45625 235.33229Q57.45625 236.58229 55.846874 238.33229L53.565624 240.80104L57.846874 240.80104L57.846874 241.69167ZM64.6125 238.05104Q64.6125 239.95729 63.95625 240.89479Q63.315624 241.81667 61.925 241.81667Q60.565624 241.81667 59.909374 240.91042Q59.253124 240.00417 59.221874 238.19167L59.221874 236.75417Q59.221874 234.86354 59.8625 233.95729Q60.51875 233.03542 61.909374 233.03542Q63.284374 233.03542 63.940624 233.92604Q64.59688 234.80104 64.6125 236.64479L64.6125 238.05104ZM63.51875 236.56667Q63.51875 235.19167 63.128124 234.56667Q62.753124 233.92604 61.909374 233.92604Q61.08125 233.92604 60.690624 234.56667Q60.315624 235.19167 60.315624 236.48854L60.315624 238.22292Q60.315624 239.59792 60.70625 240.26979Q61.1125 240.92604 61.925 240.92604Q62.721874 240.92604 63.1125 240.30104Q63.503124 239.67604 63.51875 238.34792L63.51875 236.56667ZM71.6125 238.05104Q71.6125 239.95729 70.95625 240.89479Q70.31563 241.81667 68.925 241.81667Q67.56563 241.81667 66.90938 240.91042Q66.25313 240.00417 66.22188 238.19167L66.22188 236.75417Q66.22188 234.86354 66.8625 233.95729Q67.51875 233.03542 68.90938 233.03542Q70.28438 233.03542 70.94063 233.92604Q71.59688 234.80104 71.6125 236.64479L71.6125 238.05104ZM70.51875 236.56667Q70.51875 235.19167 70.12813 234.56667Q69.75313 233.92604 68.90938 233.92604Q68.08125 233.92604 67.69063 234.56667Q67.31563 235.19167 67.31563 236.48854L67.31563 238.22292Q67.31563 239.59792 67.70625 240.26979Q68.1125 240.92604 68.925 240.92604Q69.72188 240.92604 70.1125 240.30104Q70.50313 239.67604 70.51875 238.34792L70.51875 236.56667Z" fill-rule="nonzero"/><path fill="#757575" d="M56.83125 177.57396L58.01875 177.57396L58.01875 178.44896L56.83125 178.44896L56.83125 180.43333L55.753124 180.43333L55.753124 178.44896L51.8625 178.44896L51.8625 177.80833L55.675 171.90208L56.83125 171.90208L56.83125 177.57396ZM53.096874 177.57396L55.753124 177.57396L55.753124 173.38646L55.6125 173.62083L53.096874 177.57396ZM64.6125 176.79271Q64.6125 178.69896 63.95625 179.63646Q63.315624 180.55833 61.925 180.55833Q60.565624 180.55833 59.909374 179.65208Q59.253124 178.74583 59.221874 176.93333L59.221874 175.49583Q59.221874 173.60521 59.8625 172.69896Q60.51875 171.77708 61.909374 171.77708Q63.284374 171.77708 63.940624 172.66771Q64.59688 173.54271 64.6125 175.38646L64.6125 176.79271ZM63.51875 175.30833Q63.51875 173.93333 63.128124 173.30833Q62.753124 172.66771 61.909374 172.66771Q61.08125 172.66771 60.690624 173.30833Q60.315624 173.93333 60.315624 175.23021L60.315624 176.96458Q60.315624 178.33958 60.70625 179.01146Q61.1125 179.66771 61.925 179.66771Q62.721874 179.66771 63.1125 179.04271Q63.503124 178.41771 63.51875 177.08958L63.51875 175.30833ZM71.6125 176.79271Q71.6125 178.69896 70.95625 179.63646Q70.31563 180.55833 68.925 180.55833Q67.56563 180.55833 66.90938 179.65208Q66.25313 178.74583 66.22188 176.93333L66.22188 175.49583Q66.22188 173.60521 66.8625 172.69896Q67.51875 171.77708 68.90938 171.77708Q70.28438 171.77708 70.94063 172.66771Q71.59688 173.54271 71.6125 175.38646L71.6125 176.79271ZM70.51875 175.30833Q70.51875 173.93333 70.12813 173.30833Q69.75313 172.66771 68.90938 172.66771Q68.08125 172.66771 67.69063 173.30833Q67.31563 173.93333 67.31563 175.23021L67.31563 176.96458Q67.31563 178.33958 67.70625 179.01146Q68.1125 179.66771 68.925 179.66771Q69.72188 179.66771 70.1125 179.04271Q70.50313 178.41771 70.51875 177.08958L70.51875 175.30833Z" fill-rule="nonzero"/><path fill="#757575" d="M56.51875 110.64375L56.51875 111.55L56.315624 111.55Q55.05 111.58125 54.3 112.31563Q53.55 113.03438 53.425 114.34688Q54.1125 113.58125 55.26875 113.58125Q56.378124 113.58125 57.05 114.3625Q57.721874 115.14375 57.721874 116.39375Q57.721874 117.70625 57.003124 118.50313Q56.284374 119.3 55.065624 119.3Q53.846874 119.3 53.08125 118.3625Q52.33125 117.40938 52.33125 115.925L52.33125 115.51875Q52.33125 113.15938 53.33125 111.90938Q54.33125 110.65938 56.315624 110.64375L56.51875 110.64375ZM55.096874 114.4875Q54.534374 114.4875 54.065624 114.81563Q53.596874 115.14375 53.409374 115.65938L53.409374 116.05Q53.409374 117.1125 53.878124 117.75313Q54.3625 118.39375 55.065624 118.39375Q55.8 118.39375 56.221874 117.8625Q56.64375 117.31563 56.64375 116.44063Q56.64375 115.56563 56.221874 115.03438Q55.8 114.4875 55.096874 114.4875ZM64.6125 115.53438Q64.6125 117.44063 63.95625 118.37813Q63.315624 119.3 61.925 119.3Q60.565624 119.3 59.909374 118.39375Q59.253124 117.4875 59.221874 115.675L59.221874 114.2375Q59.221874 112.34688 59.8625 111.44063Q60.51875 110.51875 61.909374 110.51875Q63.284374 110.51875 63.940624 111.40938Q64.59688 112.28438 64.6125 114.12813L64.6125 115.53438ZM63.51875 114.05Q63.51875 112.675 63.128124 112.05Q62.753124 111.40938 61.909374 111.40938Q61.08125 111.40938 60.690624 112.05Q60.315624 112.675 60.315624 113.97188L60.315624 115.70625Q60.315624 117.08125 60.70625 117.75313Q61.1125 118.40938 61.925 118.40938Q62.721874 118.40938 63.1125 117.78438Q63.503124 117.15938 63.51875 115.83125L63.51875 114.05ZM71.6125 115.53438Q71.6125 117.44063 70.95625 118.37813Q70.31563 119.3 68.925 119.3Q67.56563 119.3 66.90938 118.39375Q66.25313 117.4875 66.22188 115.675L66.22188 114.2375Q66.22188 112.34688 66.8625 111.44063Q67.51875 110.51875 68.90938 110.51875Q70.28438 110.51875 70.94063 111.40938Q71.59688 112.28438 71.6125 114.12813L71.6125 115.53438ZM70.51875 114.05Q70.51875 112.675 70.12813 112.05Q69.75313 111.40938 68.90938 111.40938Q68.08125 111.40938 67.69063 112.05Q67.31563 112.675 67.31563 113.97188L67.31563 115.70625Q67.31563 117.08125 67.70625 117.75313Q68.1125 118.40938 68.925 118.40938Q69.72188 118.40938 70.1125 117.78438Q70.50313 117.15938 70.51875 115.83125L70.51875 114.05Z" fill-rule="nonzero"/><path fill="#757575" d="M57.440624 51.604168Q57.440624 52.244793 57.096874 52.744793Q56.753124 53.244793 56.190624 53.526043Q56.846874 53.807293 57.2375 54.369793Q57.628124 54.916668 57.628124 55.619793Q57.628124 56.713543 56.878124 57.385418Q56.14375 58.041668 54.925 58.041668Q53.690624 58.041668 52.940624 57.385418Q52.20625 56.713543 52.20625 55.619793Q52.20625 54.916668 52.58125 54.369793Q52.95625 53.807293 53.628124 53.526043Q53.065624 53.244793 52.7375 52.744793Q52.409374 52.244793 52.409374 51.604168Q52.409374 50.526043 53.096874 49.901043Q53.784374 49.260418 54.925 49.260418Q56.05 49.260418 56.7375 49.901043Q57.440624 50.526043 57.440624 51.604168ZM56.55 55.588543Q56.55 54.869793 56.096874 54.432293Q55.64375 53.979168 54.909374 53.979168Q54.175 53.979168 53.721874 54.432293Q53.284374 54.869793 53.284374 55.604168Q53.284374 56.322918 53.721874 56.744793Q54.159374 57.151043 54.925 57.151043Q55.675 57.151043 56.1125 56.729168Q56.55 56.307293 56.55 55.588543ZM54.925 50.151043Q54.284374 50.151043 53.878124 50.557293Q53.4875 50.947918 53.4875 51.635418Q53.4875 52.276043 53.878124 52.682293Q54.26875 53.088543 54.909374 53.088543Q55.565624 53.088543 55.95625 52.682293Q56.346874 52.276043 56.346874 51.635418Q56.346874 50.979168 55.940624 50.572918Q55.534374 50.151043 54.925 50.151043ZM64.6125 54.276043Q64.6125 56.182293 63.95625 57.119793Q63.315624 58.041668 61.925 58.041668Q60.565624 58.041668 59.909374 57.135418Q59.253124 56.229168 59.221874 54.416668L59.221874 52.979168Q59.221874 51.088543 59.8625 50.182293Q60.51875 49.260418 61.909374 49.260418Q63.284374 49.260418 63.940624 50.151043Q64.59688 51.026043 64.6125 52.869793L64.6125 54.276043ZM63.51875 52.791668Q63.51875 51.416668 63.128124 50.791668Q62.753124 50.151043 61.909374 50.151043Q61.08125 50.151043 60.690624 50.791668Q60.315624 51.416668 60.315624 52.713543L60.315624 54.447918Q60.315624 55.822918 60.70625 56.494793Q61.1125 57.151043 61.925 57.151043Q62.721874 57.151043 63.1125 56.526043Q63.503124 55.901043 63.51875 54.572918L63.51875 52.791668ZM71.6125 54.276043Q71.6125 56.182293 70.95625 57.119793Q70.31563 58.041668 68.925 58.041668Q67.56563 58.041668 66.90938 57.135418Q66.25313 56.229168 66.22188 54.416668L66.22188 52.979168Q66.22188 51.088543 66.8625 50.182293Q67.51875 49.260418 68.90938 49.260418Q70.28438 49.260418 70.94063 50.151043Q71.59688 51.026043 71.6125 52.869793L71.6125 54.276043ZM70.51875 52.791668Q70.51875 51.416668 70.12813 50.791668Q69.75313 50.151043 68.90938 50.151043Q68.08125 50.151043 67.69063 50.791668Q67.31563 51.416668 67.31563 52.713543L67.31563 54.447918Q67.31563 55.822918 67.70625 56.494793Q68.1125 57.151043 68.925 57.151043Q69.72188 57.151043 70.1125 56.526043Q70.50313 55.901043 70.51875 54.572918L70.51875 52.791668Z" fill-rule="nonzero"/><path fill="#757575" d="M137.22466 316.45L131.6309 316.45L131.6309 315.66876L134.58403 312.3875Q135.24028 311.6375 135.49028 311.1844Q135.74028 310.71564 135.74028 310.21564Q135.74028 309.54376 135.33403 309.1219Q134.9434 308.6844 134.2559 308.6844Q133.45903 308.6844 133.0059 309.15314Q132.55278 309.60626 132.55278 310.4344L131.47466 310.4344Q131.47466 309.2469 132.22466 308.52814Q132.99028 307.79376 134.2559 307.79376Q135.45903 307.79376 136.14653 308.41876Q136.83403 309.04376 136.83403 310.09064Q136.83403 311.34064 135.22466 313.09064L132.9434 315.5594L137.22466 315.5594L137.22466 316.45Z" fill-rule="nonzero"/><path fill="#757575" d="M247.96458 313.59064L249.15208 313.59064L249.15208 314.46564L247.96458 314.46564L247.96458 316.45L246.88646 316.45L246.88646 314.46564L242.99583 314.46564L242.99583 313.825L246.80833 307.91876L247.96458 307.91876L247.96458 313.59064ZM244.23021 313.59064L246.88646 313.59064L246.88646 309.40314L246.74583 309.6375L244.23021 313.59064Z" fill-rule="nonzero"/><path fill="#757575" d="M359.40765 307.91876L359.40765 308.825L359.20453 308.825Q357.9389 308.85626 357.1889 309.59064Q356.4389 310.3094 356.3139 311.6219Q357.0014 310.85626 358.15765 310.85626Q359.26703 310.85626 359.9389 311.6375Q360.61078 312.41876 360.61078 313.66876Q360.61078 314.98126 359.89203 315.77814Q359.17328 316.575 357.95453 316.575Q356.73578 316.575 355.97015 315.6375Q355.22015 314.6844 355.22015 313.2L355.22015 312.79376Q355.22015 310.4344 356.22015 309.1844Q357.22015 307.9344 359.20453 307.91876L359.40765 307.91876ZM357.98578 311.7625Q357.42328 311.7625 356.95453 312.09064Q356.48578 312.41876 356.29828 312.9344L356.29828 313.325Q356.29828 314.3875 356.76703 315.02814Q357.2514 315.66876 357.95453 315.66876Q358.6889 315.66876 359.11078 315.1375Q359.53265 314.59064 359.53265 313.71564Q359.53265 312.84064 359.11078 312.3094Q358.6889 311.7625 357.98578 311.7625Z" fill-rule="nonzero"/><path fill="#757575" d="M472.08508 310.1375Q472.08508 310.77814 471.74133 311.27814Q471.39758 311.77814 470.83508 312.0594Q471.49133 312.34064 471.88196 312.90314Q472.27258 313.45 472.27258 314.15314Q472.27258 315.2469 471.52258 315.91876Q470.7882 316.575 469.56946 316.575Q468.33508 316.575 467.58508 315.91876Q466.8507 315.2469 466.8507 314.15314Q466.8507 313.45 467.2257 312.90314Q467.6007 312.34064 468.27258 312.0594Q467.71008 311.77814 467.38196 311.27814Q467.05383 310.77814 467.05383 310.1375Q467.05383 309.0594 467.74133 308.4344Q468.42883 307.79376 469.56946 307.79376Q470.69446 307.79376 471.38196 308.4344Q472.08508 309.0594 472.08508 310.1375ZM471.19446 314.1219Q471.19446 313.40314 470.74133 312.96564Q470.2882 312.5125 469.55383 312.5125Q468.81946 312.5125 468.36633 312.96564Q467.92883 313.40314 467.92883 314.1375Q467.92883 314.85626 468.36633 315.27814Q468.80383 315.6844 469.56946 315.6844Q470.31946 315.6844 470.75696 315.2625Q471.19446 314.84064 471.19446 314.1219ZM469.56946 308.6844Q468.92883 308.6844 468.52258 309.09064Q468.13196 309.48126 468.13196 310.16876Q468.13196 310.8094 468.52258 311.21564Q468.9132 311.6219 469.55383 311.6219Q470.21008 311.6219 470.6007 311.21564Q470.99133 310.8094 470.99133 310.16876Q470.99133 309.5125 470.58508 309.10626Q470.17883 308.6844 469.56946 308.6844Z" fill-rule="nonzero"/><path fill="#757575" d="M578.71564 316.45L577.6375 316.45L577.6375 309.23126L575.45 310.02814L575.45 309.04376L578.5594 307.8719L578.71564 307.8719L578.71564 316.45ZM587.5125 312.8094Q587.5125 314.71564 586.85626 315.65314Q586.21564 316.575 584.825 316.575Q583.46564 316.575 582.8094 315.66876Q582.15314 314.7625 582.1219 312.95L582.1219 311.5125Q582.1219 309.6219 582.7625 308.71564Q583.41876 307.79376 584.8094 307.79376Q586.1844 307.79376 586.84064 308.6844Q587.4969 309.5594 587.5125 311.40314L587.5125 312.8094ZM586.41876 311.325Q586.41876 309.95 586.02814 309.325Q585.65314 308.6844 584.8094 308.6844Q583.98126 308.6844 583.59064 309.325Q583.21564 309.95 583.21564 311.2469L583.21564 312.98126Q583.21564 314.35626 583.60626 315.02814Q584.0125 315.6844 584.825 315.6844Q585.6219 315.6844 586.0125 315.0594Q586.40314 314.4344 586.41876 313.10626L586.41876 311.325Z" fill-rule="nonzero"/><path stroke="#4285f4" stroke-width="4.0" stroke-linecap="butt" d="M244.0 26.05L256.0 26.05" fill-rule="nonzero"/><path fill="#757575" d="M266.4375 22.01875L269.23438 28.971874L272.01562 22.01875L273.48438 22.01875L273.48438 30.55L272.35938 30.55L272.35938 27.221874L272.46875 23.64375L269.65625 30.55L268.79688 30.55L266.0 23.659374L266.10938 27.221874L266.10938 30.55L264.98438 30.55L264.98438 22.01875L266.4375 22.01875ZM275.84375 24.20625L275.875 25.003124Q276.60938 24.096874 277.78125 24.096874Q279.79688 24.096874 279.8125 26.3625L279.8125 30.55L278.71875 30.55L278.71875 26.346874Q278.71875 25.675 278.40625 25.346874Q278.10938 25.01875 277.45312 25.01875Q276.92188 25.01875 276.51562 25.3Q276.125 25.58125 275.90625 26.034374L275.90625 30.55L274.82812 30.55L274.82812 24.20625L275.84375 24.20625ZM283.0 30.55L281.92188 30.55L281.92188 24.20625L283.0 24.20625L283.0 30.55ZM281.82812 22.534374Q281.82812 22.26875 281.98438 22.08125Q282.15625 21.89375 282.46875 21.89375Q282.78125 21.89375 282.9375 22.08125Q283.10938 22.26875 283.10938 22.534374Q283.10938 22.784374 282.9375 22.971874Q282.78125 23.14375 282.46875 23.14375Q282.15625 23.14375 281.98438 22.971874Q281.82812 22.784374 281.82812 22.534374ZM288.51562 28.8625Q288.51562 28.425 288.17188 28.190624Q287.84375 27.940624 287.01562 27.76875Q286.20312 27.596874 285.71875 27.346874Q285.23438 27.096874 285.0 26.76875Q284.78125 26.425 284.78125 25.95625Q284.78125 25.175 285.4375 24.64375Q286.09375 24.096874 287.125 24.096874Q288.20312 24.096874 288.85938 24.659374Q289.53125 25.20625 289.53125 26.065624L288.45312 26.065624Q288.45312 25.628124 288.0625 25.315624Q287.6875 24.9875 287.125 24.9875Q286.53125 24.9875 286.1875 25.253124Q285.85938 25.503124 285.85938 25.909374Q285.85938 26.3 286.17188 26.503124Q286.48438 26.70625 287.29688 26.89375Q288.10938 27.065624 288.60938 27.315624Q289.10938 27.565624 289.34375 27.925Q289.59375 28.284374 289.59375 28.784374Q289.59375 29.64375 288.90625 30.159374Q288.23438 30.675 287.15625 30.675Q286.39062 30.675 285.79688 30.409374Q285.21875 30.128124 284.89062 29.64375Q284.5625 29.159374 284.5625 28.596874L285.64062 28.596874Q285.67188 29.14375 286.07812 29.471874Q286.48438 29.784374 287.15625 29.784374Q287.76562 29.784374 288.14062 29.534374Q288.51562 29.284374 288.51562 28.8625ZM292.29688 22.675L292.29688 24.20625L293.46875 24.20625L293.46875 25.05L292.29688 25.05L292.29688 28.971874Q292.29688 29.3625 292.45312 29.55Q292.60938 29.7375 292.98438 29.7375Q293.17188 29.7375 293.5 29.675L293.5 30.55Q293.07812 30.675 292.67188 30.675Q291.95312 30.675 291.57812 30.2375Q291.20312 29.784374 291.20312 28.971874L291.20312 25.05L290.04688 25.05L290.04688 24.20625L291.20312 24.20625L291.20312 22.675L292.29688 22.675Z" fill-rule="nonzero"/><path stroke="#db4437" stroke-width="4.0" stroke-linecap="butt" d="M310.0 26.05L322.0 26.05" fill-rule="nonzero"/><path fill="#757575" d="M337.26562 27.846874Q337.10938 29.190624 336.26562 29.940624Q335.42188 30.675 334.03125 30.675Q332.51562 30.675 331.60938 29.596874Q330.70312 28.503124 330.70312 26.675L330.70312 25.8625Q330.70312 24.675 331.125 23.76875Q331.54688 22.8625 332.32812 22.378124Q333.10938 21.89375 334.125 21.89375Q335.48438 21.89375 336.29688 22.659374Q337.125 23.425 337.26562 24.753124L336.14062 24.753124Q335.98438 23.7375 335.5 23.284374Q335.01562 22.83125 334.125 22.83125Q333.04688 22.83125 332.4375 23.628124Q331.82812 24.425 331.82812 25.89375L331.82812 26.721874Q331.82812 28.1125 332.40625 28.940624Q332.98438 29.753124 334.03125 29.753124Q334.96875 29.753124 335.46875 29.33125Q335.96875 28.89375 336.14062 27.846874L337.26562 27.846874ZM340.0 30.55L338.92188 30.55L338.92188 24.20625L340.0 24.20625L340.0 30.55ZM338.82812 22.534374Q338.82812 22.26875 338.98438 22.08125Q339.15625 21.89375 339.46875 21.89375Q339.78125 21.89375 339.9375 22.08125Q340.10938 22.26875 340.10938 22.534374Q340.10938 22.784374 339.9375 22.971874Q339.78125 23.14375 339.46875 23.14375Q339.15625 23.14375 338.98438 22.971874Q338.82812 22.784374 338.82812 22.534374ZM342.35938 30.55L342.35938 25.05L341.35938 25.05L341.35938 24.20625L342.35938 24.20625L342.35938 23.565624Q342.35938 22.534374 342.89062 21.9875Q343.4375 21.425 344.4375 21.425Q344.8125 21.425 345.1875 21.51875L345.125 22.409374Q344.84375 22.346874 344.54688 22.346874Q344.01562 22.346874 343.71875 22.659374Q343.4375 22.971874 343.4375 23.534374L343.4375 24.20625L344.79688 24.20625L344.79688 25.05L343.4375 25.05L343.4375 30.55L342.35938 30.55ZM349.73438 30.55Q349.64062 30.3625 349.57812 29.878124Q348.82812 30.675 347.78125 30.675Q346.84375 30.675 346.23438 30.14375Q345.64062 29.6125 345.64062 28.784374Q345.64062 27.8 346.39062 27.253124Q347.14062 26.70625 348.51562 26.70625L349.5625 26.70625L349.5625 26.20625Q349.5625 25.64375 349.21875 25.315624Q348.89062 24.971874 348.21875 24.971874Q347.64062 24.971874 347.25 25.26875Q346.85938 25.55 346.85938 25.971874L345.76562 25.971874Q345.76562 25.4875 346.09375 25.05Q346.4375 24.6125 347.01562 24.3625Q347.59375 24.096874 348.28125 24.096874Q349.39062 24.096874 350.0 24.64375Q350.625 25.190624 350.65625 26.14375L350.65625 29.065624Q350.65625 29.940624 350.875 30.45625L350.875 30.55L349.73438 30.55ZM347.9375 29.721874Q348.45312 29.721874 348.90625 29.45625Q349.35938 29.190624 349.5625 28.76875L349.5625 27.471874L348.71875 27.471874Q346.71875 27.471874 346.71875 28.64375Q346.71875 29.14375 347.0625 29.440624Q347.40625 29.721874 347.9375 29.721874ZM355.89062 25.175Q355.64062 25.14375 355.35938 25.14375Q354.28125 25.14375 353.90625 26.05L353.90625 30.55L352.82812 30.55L352.82812 24.20625L353.875 24.20625L353.89062 24.940624Q354.42188 24.096874 355.40625 24.096874Q355.71875 24.096874 355.89062 24.175L355.89062 25.175Z" fill-rule="nonzero"/></svg>